<svg width="163" height="73" viewBox="0 0 163 73" fill="none" xmlns="http://www.w3.org/2000/svg">
<path d="M26.6038 42.5305C27.4296 41.7637 30.9689 38.0474 32.5616 36.3957C34.1543 34.803 34.2133 34.5081 34.2133 34.2132C34.2133 33.9772 34.0953 33.8002 33.8594 33.7413C33.6824 33.6823 33.6234 33.6233 33.6234 33.5053C33.6234 33.3873 33.8004 33.3283 34.0363 33.3283C34.8032 33.3283 34.6852 33.3873 35.629 33.3873C36.4548 33.3873 37.9885 33.3283 38.4015 33.3283C38.7554 33.3283 38.8734 33.3873 38.8734 33.5053C38.8734 33.6233 38.8144 33.6823 38.5784 33.6823C38.1065 33.7412 37.6346 33.8592 37.2217 33.9772C36.5728 34.2132 36.1009 34.5671 34.5082 36.0418C32.2077 38.2244 29.2583 41.1738 28.5504 41.9406C30.2021 43.7103 34.9211 48.5473 36.1599 49.6681C38.2835 51.6737 39.2273 52.2046 40.466 52.4405C40.702 52.4995 40.938 52.4995 41.2329 52.4995C41.4688 52.4995 41.5868 52.5585 41.5868 52.6765C41.5868 52.7945 41.4688 52.8535 41.1739 52.8535H39.2273C36.9857 52.8535 36.3369 52.5585 35.1571 51.6147C33.5644 50.376 28.9043 45.4209 26.6038 42.6485V45.303C26.6038 47.7805 26.6038 49.8451 26.7218 50.9069C26.7807 51.6737 26.9577 52.2046 27.7246 52.3226C28.0785 52.3816 28.6094 52.4405 28.7863 52.4405C29.0223 52.4405 29.0813 52.5585 29.0813 52.6175C29.0813 52.7355 28.9633 52.7945 28.6684 52.7945C27.2527 52.7945 25.601 52.7355 25.483 52.7355C25.365 52.7355 23.8313 52.7945 23.0055 52.7945C22.7105 52.7945 22.5926 52.7945 22.5926 52.6175C22.5926 52.5585 22.6516 52.4405 22.8875 52.4405C23.0645 52.4405 23.3594 52.4406 23.5364 52.3816C24.0673 52.2636 24.1853 51.6737 24.3032 50.9069C24.4212 49.8451 24.4212 47.7805 24.4212 45.303V40.7609C24.4212 36.6907 24.4212 35.9828 24.3622 35.157C24.3032 34.2721 24.0673 33.8592 23.4774 33.6823C23.1825 33.6233 22.7106 33.5643 22.5336 33.5643C22.2976 33.5643 22.2386 33.5053 22.2386 33.3873C22.2386 33.2104 22.3566 33.1514 22.6516 33.1514C23.5364 33.1514 25.247 33.2104 25.365 33.2104C25.483 33.2104 27.1347 33.1514 27.9015 33.1514C28.1965 33.1514 28.3144 33.2103 28.3144 33.3283C28.3144 33.4463 28.2555 33.5053 28.0195 33.5053C27.7246 33.5053 27.7246 33.5053 27.4296 33.5643C26.7218 33.6233 26.5448 34.1542 26.4858 35.039C26.4268 35.8648 26.4268 36.5727 26.4268 40.6429V42.5305H26.6038Z" fill="#505E7F"/>
<path d="M38.8733 44.5364C38.8733 40.9381 41.5868 35.8062 47.8395 35.8062C52.9715 35.8062 56.8058 38.9915 56.8058 44.1825C56.8058 49.1965 53.2075 53.2667 47.7215 53.2667C41.4688 53.2667 38.8733 48.5476 38.8733 44.5364ZM54.6232 44.7724C54.6232 39.4044 51.3198 36.573 47.6626 36.573C43.8283 36.573 40.9969 39.0505 40.9969 43.8875C40.9969 49.0785 44.1822 52.4409 48.3114 52.4409C50.376 52.4409 54.6232 51.2611 54.6232 44.7724Z" fill="#505E7F"/>
<path d="M59.7552 42.5894C59.7552 39.1091 59.7552 38.5192 59.6962 37.8113C59.6372 37.0445 59.4602 36.6905 58.6934 36.5136C58.5164 36.4546 58.1035 36.4546 57.9265 36.4546C57.8086 36.4546 57.7496 36.3956 57.7496 36.3366C57.7496 36.2186 57.8676 36.1597 58.1035 36.1597C59.1653 36.1597 60.64 36.2186 60.758 36.2186C60.9939 36.2186 62.7636 36.1597 63.5304 36.1597C65.0052 36.1597 66.5978 36.2776 67.7776 37.1625C68.3675 37.5754 69.3703 38.6372 69.3703 40.1709C69.3703 41.8225 68.6624 43.4742 66.5389 45.3029C68.4265 47.6624 70.0192 49.609 71.3759 51.0247C72.6146 52.3225 73.6175 52.5584 74.2073 52.6174C74.6792 52.6764 74.9742 52.6764 75.0922 52.6764C75.2101 52.6764 75.3281 52.7354 75.3281 52.7944C75.3281 52.9124 75.2101 52.9713 74.7382 52.9713H73.0865C71.7888 52.9713 71.1989 52.8534 70.609 52.5584C69.6062 52.0275 68.7804 50.9657 67.4827 49.3141C66.4798 48.0753 65.4181 46.6006 64.9462 46.0107C64.8282 45.8927 64.7692 45.8927 64.6512 45.8927L61.7608 45.8338C61.6428 45.8338 61.5838 45.8927 61.5838 46.0107V46.5416C61.5838 48.6652 61.5838 50.4348 61.7018 51.3787C61.7608 52.0275 61.9378 52.4994 62.5866 52.6174C62.9406 52.6764 63.4125 52.7354 63.6484 52.7354C63.7664 52.7354 63.8254 52.7944 63.8254 52.8534C63.8254 52.9713 63.7074 53.0303 63.4715 53.0303C62.1737 53.0303 60.699 52.9713 60.581 52.9713C60.581 52.9713 59.1063 53.0303 58.3984 53.0303C58.1625 53.0303 58.0445 52.9713 58.0445 52.8534C58.0445 52.7944 58.1035 52.7354 58.2215 52.7354C58.4574 52.7354 58.6934 52.6764 58.9293 52.6174C59.4012 52.4994 59.5192 52.0275 59.5782 51.3787C59.6962 50.4348 59.6962 48.6652 59.6962 46.5416V42.5894H59.7552ZM61.6428 44.536C61.6428 44.654 61.7018 44.713 61.8198 44.8309C62.1737 45.0079 63.2355 45.1849 64.2973 45.1849C64.8872 45.1849 65.536 45.1259 66.0669 44.772C66.8928 44.2411 67.4827 43.0613 67.4827 41.3506C67.4827 38.5782 65.949 36.9265 63.4125 36.9265C62.7046 36.9265 62.0557 36.9855 61.8198 37.0445C61.7018 37.1035 61.6428 37.1625 61.6428 37.3394V44.536Z" fill="#505E7F"/>
<path d="M78.9264 46.5417C78.9264 48.6653 78.9264 50.435 79.0444 51.3788C79.1034 52.0277 79.2214 52.4996 79.9292 52.6175C80.2242 52.6765 80.7551 52.7355 80.932 52.7355C81.05 52.7355 81.109 52.7945 81.109 52.8535C81.109 52.9715 80.991 53.0305 80.7551 53.0305C79.5163 53.0305 78.0416 52.9715 77.9236 52.9715C77.8056 52.9715 76.3899 53.0305 75.6821 53.0305C75.4461 53.0305 75.3281 52.9715 75.3281 52.8535C75.3281 52.7945 75.3871 52.7355 75.5051 52.7355C75.6821 52.7355 75.977 52.6765 76.213 52.6175C76.6849 52.4996 76.8029 52.0277 76.8618 51.3788C76.9798 50.435 76.9798 48.6653 76.9798 46.5417V37.1036C75.859 37.1036 74.7383 37.1036 73.6175 37.1626C72.2018 37.1626 71.6709 37.3396 71.2579 37.8705C71.022 38.2244 70.963 38.4013 70.845 38.5783C70.786 38.7553 70.727 38.8143 70.6091 38.8143C70.5501 38.8143 70.4911 38.7553 70.4911 38.6373C70.4911 38.4013 70.963 36.5137 71.022 36.3368C71.081 36.2188 71.14 35.9238 71.2579 35.9238C71.4349 35.9238 71.6709 36.1598 72.2607 36.2188C72.9096 36.2778 73.7944 36.3368 74.0894 36.3368H82.6427C83.3506 36.3368 83.8814 36.2778 84.2944 36.2188C84.6483 36.1598 84.8253 36.1008 84.9432 36.1008C85.0612 36.1008 85.0612 36.2188 85.0612 36.3957C85.0612 37.0446 85.0022 38.5783 85.0022 38.8732C85.0022 39.0502 84.9432 39.1682 84.8253 39.1682C84.7073 39.1682 84.6483 39.1092 84.6483 38.8143C84.6483 38.6963 84.6483 38.6373 84.6483 38.5783C84.5893 37.9294 84.0584 37.3986 81.8169 37.3396C80.873 37.3396 79.8702 37.3396 78.9264 37.2806V46.5417Z" fill="#505E7F"/>
<path d="M99.2184 43.1793C99.2774 43.1793 99.3364 43.1793 99.3364 43.0613V42.5894C99.3364 39.1091 99.3364 38.5192 99.2774 37.8113C99.2184 37.0445 99.0414 36.6905 98.2746 36.5136C98.0976 36.4546 97.6847 36.4546 97.5077 36.4546C97.3898 36.4546 97.3308 36.3956 97.3308 36.3366C97.3308 36.2186 97.4487 36.1597 97.6847 36.1597C98.6875 36.1597 100.103 36.2186 100.221 36.2186C100.339 36.2186 101.755 36.1597 102.463 36.1597C102.699 36.1597 102.817 36.2186 102.817 36.3366C102.817 36.4546 102.699 36.4546 102.64 36.4546C102.463 36.4546 102.345 36.4546 102.05 36.5136C101.46 36.6316 101.283 36.9855 101.224 37.8113C101.165 38.5192 101.165 39.1681 101.165 42.5894V46.4826C101.165 48.6062 101.165 50.3758 101.283 51.3197C101.342 51.9685 101.46 52.4404 102.168 52.5584C102.463 52.6174 102.994 52.6764 103.171 52.6764C103.289 52.6764 103.348 52.7354 103.348 52.7944C103.348 52.9123 103.23 52.9713 102.994 52.9713C101.755 52.9713 100.339 52.9124 100.221 52.9124C100.103 52.9124 98.6875 52.9713 97.9796 52.9713C97.7437 52.9713 97.6257 52.9123 97.6257 52.7944C97.6257 52.7354 97.6847 52.6764 97.8027 52.6764C97.9796 52.6764 98.2746 52.6174 98.5105 52.5584C98.9824 52.4404 99.1004 51.9685 99.1594 51.3197C99.2774 50.3758 99.2774 48.6062 99.2774 46.4826V44.1231C99.2774 44.0051 99.2184 44.0051 99.1594 44.0051H89.5443C89.4853 44.0051 89.4263 44.0051 89.4263 44.1231V46.4826C89.4263 48.6062 89.4263 50.3758 89.5443 51.3197C89.6033 51.9685 89.7213 52.4404 90.4291 52.5584C90.7241 52.6174 91.255 52.6764 91.4319 52.6764C91.5499 52.6764 91.6089 52.7354 91.6089 52.7944C91.6089 52.9123 91.4909 52.9713 91.255 52.9713C90.0162 52.9713 88.6005 52.9124 88.4825 52.9124C88.3645 52.9124 86.9488 52.9713 86.2409 52.9713C86.005 52.9713 85.887 52.9123 85.887 52.7944C85.887 52.7354 85.946 52.6764 86.064 52.6764C86.2409 52.6764 86.5359 52.6174 86.7718 52.5584C87.2437 52.4404 87.3617 51.9685 87.4207 51.3197C87.5387 50.3758 87.5387 48.6062 87.5387 46.4826V42.5894C87.5387 39.1091 87.5387 38.5192 87.4797 37.8113C87.4207 37.0445 87.2437 36.6905 86.4769 36.5136C86.2999 36.4546 85.887 36.4546 85.7101 36.4546C85.5921 36.4546 85.5331 36.3956 85.5331 36.3366C85.5331 36.2186 85.6511 36.1597 85.887 36.1597C86.8898 36.1597 88.3055 36.2186 88.4235 36.2186C88.5415 36.2186 89.9572 36.1597 90.6651 36.1597C90.901 36.1597 91.019 36.2186 91.019 36.3366C91.019 36.4546 90.901 36.4546 90.842 36.4546C90.6651 36.4546 90.5471 36.4546 90.2521 36.5136C89.6623 36.6316 89.4853 36.9855 89.4263 37.8113C89.3673 38.5192 89.3673 39.1681 89.3673 42.5894V43.0613C89.3673 43.1793 89.4263 43.1793 89.4853 43.1793H99.2184Z" fill="#505E7F"/>
<path d="M124.111 12.8006C140.569 21.7668 146.645 42.4128 137.62 58.8705C134.257 65.0053 129.361 69.6654 123.64 72.6738C131.603 69.8423 138.564 64.2384 142.929 56.275C152.308 39.1094 145.996 17.5786 128.831 8.19949C111.842 -1.06168 90.5471 5.01412 81.05 21.8258C91.019 8.84837 109.246 4.6602 124.111 12.8006Z" fill="#898788"/>
<path d="M103.466 36.042L159.917 3.12646L131.19 18.7584L103.466 36.042Z" fill="#505E7F"/>
<path d="M156.319 0C156.319 0 160.035 1.47471 162.1 1.17977C162.1 1.17977 160.625 5.89885 161.156 7.25558C161.156 7.25558 160.979 1.94662 156.319 0Z" fill="#505E7F"/>
<path d="M1.35673 60.286C1.35673 58.0444 1.35674 57.6315 1.29775 57.1596C1.23876 56.6877 1.17977 56.4518 0.707867 56.3338C0.589891 56.3338 0.353932 56.2748 0.176967 56.2748C0.0589902 56.2748 0 56.2748 0 56.2158C0 56.1568 0.0589938 56.0978 0.235959 56.0978C0.884831 56.0978 1.82865 56.1568 1.88763 56.1568C2.0646 56.1568 3.00841 56.0978 3.89324 56.0978C5.36794 56.0978 8.08141 55.9798 9.79207 57.7495C10.5589 58.5163 11.2078 59.6961 11.2078 61.4068C11.2078 63.2354 10.4409 64.6511 9.6151 65.477C8.96623 66.1258 7.66849 67.1287 5.13199 67.1287C4.48312 67.1287 3.71627 67.0697 3.0674 67.0697C2.41853 67.0107 1.88763 67.0107 1.82864 67.0107C1.76965 67.0107 1.5337 67.0107 1.23876 67.0107C0.943817 67.0107 0.589887 67.0107 0.353934 67.0107C0.176969 67.0107 0.117984 67.0107 0.117984 66.8927C0.117984 66.8337 0.176965 66.8337 0.294942 66.8337C0.471907 66.8337 0.589891 66.8337 0.707867 66.7747C1.00281 66.7157 1.0618 66.4208 1.12078 65.9489C1.17977 65.359 1.17977 64.1792 1.17977 62.8225V60.286H1.35673ZM2.59549 61.8197C2.59549 63.3534 2.59549 64.7101 2.59549 64.9461C2.59549 65.3 2.65448 65.8899 2.77246 66.0669C2.94943 66.3618 3.5393 66.6567 5.30895 66.6567C6.66568 66.6567 7.96343 66.1848 8.84825 65.3C9.6151 64.5332 10.028 63.1764 10.028 61.8197C10.028 59.9911 9.20219 58.8113 8.6123 58.1624C7.19658 56.7467 5.54491 56.5108 3.77526 56.5108C3.48032 56.5108 2.94942 56.5697 2.83144 56.6287C2.71347 56.6877 2.65448 56.7467 2.65448 56.9237C2.65448 57.3956 2.65448 58.8703 2.65448 59.9911V61.8197H2.59549Z" fill="#898788"/>
<path d="M13.5084 61.2301C13.5084 59.3425 13.5084 58.9886 13.4494 58.5757C13.4494 58.1627 13.3314 57.9858 13.0364 57.9268C12.8595 57.9268 12.8005 57.9268 12.6825 57.8678C12.5645 57.8678 12.5056 57.8088 12.5056 57.7498C12.5056 57.6908 12.5645 57.6318 12.7415 57.6318C13.2134 57.6318 14.0392 57.6908 14.0982 57.6908C14.1572 57.6908 15.0421 57.6318 15.455 57.6318C15.6319 57.6318 15.6909 57.6318 15.6909 57.7498C15.6909 57.8088 15.6319 57.8088 15.514 57.8678C15.396 57.8678 15.337 57.8678 15.219 57.8678C14.8061 57.9268 14.7471 58.1627 14.6881 58.5757C14.6881 58.9886 14.6881 59.2835 14.6881 61.2301V63.4127C14.6881 64.5335 14.6881 65.5363 14.7471 66.0672C14.8061 66.4801 14.8651 66.6571 15.278 66.716C15.455 66.775 15.8089 66.775 15.8679 66.775C15.9859 66.775 16.0449 66.834 16.0449 66.893C16.0449 66.952 15.9859 67.011 15.8089 67.011C15.042 67.011 14.2162 66.952 14.0982 66.952C14.0392 66.952 13.1544 67.011 12.7415 67.011C12.6235 67.011 12.5056 67.011 12.5056 66.893C12.5056 66.834 12.5645 66.775 12.6825 66.775C12.7415 66.775 12.9185 66.775 13.0364 66.716C13.2724 66.6571 13.3314 66.3621 13.3904 66.0082C13.4494 65.4773 13.4494 64.4745 13.4494 63.3537V61.2301H13.5084Z" fill="#898788"/>
<path d="M18.3454 61.2297C18.3454 59.3421 18.3454 58.9882 18.2864 58.5753C18.2274 58.1623 18.1684 57.9854 17.6965 57.8674C17.5785 57.8674 17.4605 57.8674 17.3426 57.8674C17.2246 57.8674 17.1656 57.8674 17.1656 57.8084C17.1656 57.7494 17.2246 57.6904 17.3426 57.6904C17.9914 57.6904 18.8763 57.7494 18.9352 57.7494C19.0532 57.7494 20.056 57.6904 20.4689 57.6904C21.2948 57.6904 22.1796 57.7494 22.8875 58.2213C23.1824 58.3983 23.7723 58.9882 23.7723 59.991C23.7723 60.8168 23.3594 61.8196 22.1796 62.7044C23.2414 64.0022 24.1262 65.064 24.8931 65.8308C25.6009 66.5387 26.0728 66.6567 26.4858 66.7156C26.6037 66.7156 26.8987 66.7156 26.9577 66.7156C27.0756 66.7156 27.1346 66.7746 27.1346 66.8336C27.1346 66.8926 27.0756 66.9516 26.8397 66.9516H25.7779C25.07 66.9516 24.7751 66.8926 24.4212 66.7746C23.7723 66.5387 23.3594 65.8898 22.5925 64.887C22.0026 64.1791 21.4128 63.4123 21.1768 63.1173C21.1178 63.0584 21.0588 63.0584 20.9998 63.0584H19.4661C19.4071 63.0584 19.4071 63.0584 19.4071 63.1173V63.2943C19.4071 64.4741 19.4071 65.5359 19.4661 66.0078C19.5251 66.3617 19.5841 66.6567 20.056 66.7156C20.233 66.7156 20.351 66.7156 20.4689 66.7156C20.5869 66.7156 20.6459 66.7746 20.6459 66.7746C20.6459 66.8336 20.5869 66.8926 20.4099 66.8926C19.6431 66.8926 18.8173 66.8336 18.7583 66.8336C18.5223 66.8336 17.8734 66.8926 17.4605 66.8926C17.2836 66.8926 17.2246 66.8926 17.2246 66.7746C17.2246 66.7156 17.3425 66.7156 17.4015 66.7156C17.5195 66.7156 17.6375 66.7156 17.6965 66.7156C17.9324 66.6567 18.0504 66.5387 18.1094 66.1847C18.1684 65.6539 18.1684 64.4741 18.1684 63.4123V61.2297H18.3454ZM19.5251 62.2915C19.5251 62.3505 19.5251 62.4095 19.5841 62.4685C19.7611 62.5864 20.351 62.6454 20.8819 62.6454C21.1768 62.6454 21.5897 62.6455 21.8847 62.4095C22.3566 62.1146 22.6515 61.5247 22.6515 60.5809C22.6515 58.9882 21.7667 58.1033 20.4689 58.1033C20.115 58.1033 19.7611 58.1033 19.5841 58.1623C19.5251 58.1623 19.4661 58.2213 19.4661 58.2803V62.2915H19.5251Z" fill="#898788"/>
<path d="M26.9577 61.2301C26.9577 59.3425 26.9577 58.9886 26.8987 58.5757C26.8987 58.1627 26.7807 57.9858 26.3088 57.8678C26.2498 57.8678 26.0728 57.8678 25.9549 57.8678C25.8369 57.8678 25.7779 57.8088 25.7779 57.8088C25.7779 57.7498 25.8369 57.6908 26.0138 57.6908C26.3088 57.6908 26.7217 57.6908 27.5475 57.7498C27.6065 57.7498 30.261 57.7498 30.5559 57.7498C30.8509 57.7498 31.0279 57.7498 31.1458 57.6908C31.2638 57.6908 31.2638 57.6318 31.3228 57.6318C31.3228 57.6318 31.3818 57.6318 31.3818 57.7498C31.3818 57.8088 31.2638 58.0447 31.2638 58.3987C31.2638 58.6346 31.2048 58.8706 31.2048 59.1655C31.2048 59.2835 31.1458 59.4015 31.0868 59.4015C31.0279 59.4015 30.9689 59.3425 30.9689 59.2245C30.9689 58.9886 30.9099 58.8706 30.8509 58.7526C30.7329 58.4577 30.6149 58.3397 29.9071 58.3397C29.7301 58.3397 28.2554 58.3397 28.1964 58.3397C28.1374 58.3397 28.1374 58.3397 28.1374 58.4577V61.761C28.1374 61.82 28.1374 61.879 28.1964 61.879C28.3734 61.879 29.9071 61.879 30.202 61.82C30.5559 61.82 30.7919 61.761 30.9099 61.584C30.9689 61.5251 31.0279 61.4661 31.0868 61.4661C31.1458 61.4661 31.1458 61.4661 31.1458 61.5251C31.1458 61.5841 31.0868 61.879 31.0279 62.2919C30.9689 62.7048 30.9689 62.9998 30.9689 63.1767C30.9689 63.2947 30.9099 63.3537 30.8509 63.3537C30.7919 63.3537 30.7329 63.2947 30.7329 63.1767C30.7329 63.1177 30.7329 62.9408 30.6739 62.8228C30.6149 62.6458 30.497 62.4099 29.9661 62.4099C29.6121 62.4099 28.4324 62.3509 28.1964 62.3509C28.0784 62.3509 28.0784 62.4099 28.0784 62.4689V63.5307C28.0784 64.0026 28.0784 65.2413 28.0784 65.4773C28.0784 66.0082 28.1964 66.3031 28.4914 66.4211C28.7273 66.5391 29.0812 66.5391 29.5531 66.5391C29.8481 66.5391 30.32 66.5391 30.6739 66.4801C31.1458 66.3621 31.2048 66.0672 31.3228 65.5363C31.3818 65.4183 31.3818 65.3593 31.4408 65.3593C31.5587 65.3593 31.5587 65.4773 31.5587 65.5953C31.5587 65.7132 31.4408 66.5981 31.3818 66.834C31.3228 67.129 31.2048 67.129 30.7329 67.129C29.7301 67.129 29.3172 67.129 28.8453 67.129C28.3144 67.129 27.6655 67.07 27.0756 67.07C26.7217 67.07 26.4268 67.129 26.0728 67.129C25.9549 67.129 25.8369 67.129 25.8369 67.011C25.8369 66.952 25.8959 66.893 25.9549 66.893C26.0728 66.893 26.1318 66.893 26.2498 66.834C26.5447 66.775 26.7217 66.5981 26.7217 65.7132C26.7217 65.2413 26.7807 64.6514 26.7807 63.5307V61.2301H26.9577Z" fill="#898788"/>
<path d="M33.5054 65.8309C32.2666 64.7692 31.9127 63.3534 31.9127 62.1147C31.9127 61.2888 32.2666 59.8731 33.3874 58.7523C34.2133 57.9855 35.393 57.4546 37.3396 57.4546C38.0475 57.4546 38.5784 57.5136 39.2863 57.6316C39.7582 57.6906 40.2301 57.7495 40.584 57.8085C40.702 57.8085 40.702 57.8675 40.702 57.9265C40.702 58.0445 40.643 58.1625 40.643 58.6344C40.643 59.0473 40.643 59.8141 40.643 59.9911C40.643 60.1681 40.584 60.286 40.525 60.286C40.407 60.286 40.407 60.2271 40.407 59.9911C40.407 59.5782 40.1711 58.9883 39.8172 58.7523C39.3452 58.3984 38.3425 57.9855 37.2217 57.9855C35.57 57.9855 34.8031 58.4574 34.3902 58.8113C33.4464 59.6962 33.2105 60.699 33.2105 61.9967C33.2105 64.4152 35.2161 66.5388 37.8116 66.5388C38.8144 66.5388 39.5812 66.4208 40.0531 65.9489C40.3481 65.654 40.466 65.3 40.525 64.8871C40.584 64.7691 40.584 64.6512 40.702 64.6512C40.761 64.6512 40.761 64.7691 40.761 64.8281C40.761 64.9461 40.584 66.1259 40.466 66.4208C40.3481 66.6568 40.3481 66.7158 40.1121 66.7748C39.5812 67.0107 38.5784 67.0697 37.7526 67.0697C35.9239 67.1877 34.5672 66.7158 33.5054 65.8309Z" fill="#898788"/>
<path d="M45.8929 63.4124C45.8929 64.5332 45.8929 65.536 45.9519 66.0669C46.0109 66.4208 46.0109 66.5978 46.4238 66.7158C46.6008 66.7748 46.8957 66.7748 47.0137 66.7748C47.1317 66.7748 47.1907 66.8338 47.1907 66.8338C47.1907 66.8927 47.1317 66.9517 47.0137 66.9517C46.2469 66.9517 45.362 66.8927 45.303 66.8927C45.244 66.8927 44.3592 66.9517 44.0053 66.9517C43.8283 66.9517 43.7693 66.9517 43.7693 66.8338C43.7693 66.7748 43.8283 66.7158 43.9463 66.7158C44.0643 66.7158 44.1823 66.7158 44.3002 66.7158C44.5952 66.6568 44.6542 66.4798 44.7132 66.0079C44.7721 65.477 44.7721 64.4152 44.7721 63.3534V58.1625C44.3002 58.1625 43.4744 58.1625 42.8845 58.1625C41.9407 58.1625 41.7047 58.3394 41.5278 58.6344C41.4098 58.8113 41.3508 58.9883 41.2918 59.1063C41.2328 59.2243 41.2328 59.2242 41.1739 59.2242C41.1149 59.2242 41.1149 59.1653 41.1149 59.1063C41.1149 59.0473 41.3508 58.0445 41.4098 57.6906C41.4688 57.5136 41.5278 57.4546 41.5278 57.4546C41.6458 57.4546 41.9407 57.5726 42.1767 57.6316C42.7075 57.6906 43.1205 57.6906 43.1205 57.6906H47.9575C48.3704 57.6906 48.8423 57.6906 49.0193 57.6316C49.1963 57.5726 49.2553 57.5726 49.3142 57.5726C49.3732 57.5726 49.4322 57.6316 49.4322 57.6906C49.4322 58.1035 49.3732 59.0473 49.3732 59.1653C49.3732 59.2832 49.3142 59.3422 49.2553 59.3422C49.1963 59.3422 49.1373 59.2832 49.1373 59.1653C49.1373 59.1063 49.1373 59.1063 49.1373 58.9883C49.0783 58.3984 48.9013 58.2804 47.3676 58.2214C46.7777 58.2214 46.3648 58.2214 45.8929 58.2214V63.4124Z" fill="#898788"/>
<path d="M65.6541 65.123C65.713 65.6539 65.831 66.4797 66.4799 66.6567C66.8928 66.7747 67.2467 66.7747 67.4237 66.7747C67.4827 66.7747 67.6007 66.7747 67.6007 66.8337C67.6007 66.8926 67.5417 66.9516 67.3647 66.9516C67.0108 66.9516 65.3591 66.8926 64.8282 66.8926C64.4743 66.8926 64.4153 66.8336 64.4153 66.7747C64.4153 66.7157 64.4153 66.7157 64.5333 66.6567C64.6512 66.5977 64.6512 66.4207 64.5923 66.1258L63.8844 58.5753L60.2271 66.1848C59.9322 66.8336 59.8732 66.9516 59.7552 66.9516C59.6372 66.9516 59.5782 66.8336 59.2833 66.3027C58.8704 65.5949 57.6316 63.0584 57.5726 62.9404C57.4547 62.7045 55.744 59.1062 55.567 58.6933L54.9772 65.5359C54.9772 65.7719 54.9772 65.9488 54.9772 66.2438C54.9772 66.5977 55.1541 66.7157 55.3901 66.7747C55.626 66.8336 55.862 66.8337 55.921 66.8337C56.039 66.8337 56.0979 66.8336 56.0979 66.8926C56.0979 67.0106 56.0389 67.0106 55.862 67.0106C55.3311 67.0106 54.5642 66.9516 54.4463 66.9516C54.3283 66.9516 53.6204 67.0106 53.2075 67.0106C53.0305 67.0106 52.9716 67.0106 52.9716 66.8926C52.9716 66.8336 53.0305 66.8337 53.1485 66.8337C53.2665 66.8337 53.3845 66.8336 53.6204 66.7747C54.0923 66.7157 54.1513 66.1848 54.2103 65.5949L55.2721 56.1568C55.2721 55.9798 55.3311 55.8618 55.4491 55.8618C55.567 55.8618 55.626 55.9208 55.685 56.0978L60.2271 65.241L64.5923 56.1568C64.6512 56.0388 64.7102 55.9208 64.8282 55.9208C64.9462 55.9208 65.0052 56.0388 65.0052 56.3337L65.6541 65.123Z" fill="#898788"/>
<path d="M66.9518 62.3507C66.9518 60.4041 68.4855 57.5137 72.1428 57.5137C75.0922 57.5137 77.2747 59.2243 77.2747 62.1148C77.2747 64.8872 75.2102 67.1288 72.0248 67.1288C68.4265 67.1878 66.9518 64.5333 66.9518 62.3507ZM75.859 62.5277C75.859 59.6373 74.0304 57.9856 72.0248 57.9856C69.9602 57.9856 68.3085 59.2243 68.3085 61.9968C68.3085 64.8282 69.9012 66.7159 72.3787 66.7159C73.3815 66.6569 75.859 66.185 75.859 62.5277Z" fill="#898788"/>
<path d="M79.2804 61.2297C79.2804 59.3421 79.2804 58.9882 79.2214 58.5753C79.1624 58.1623 79.1034 57.9854 78.6315 57.8674C78.5135 57.8674 78.3955 57.8674 78.2776 57.8674C78.1596 57.8674 78.1006 57.8674 78.1006 57.8084C78.1006 57.7494 78.1596 57.6904 78.2776 57.6904C78.9264 57.6904 79.8112 57.7494 79.8702 57.7494C79.9882 57.7494 80.991 57.6904 81.4039 57.6904C82.2298 57.6904 83.1146 57.7494 83.8225 58.2213C84.1174 58.3983 84.7073 58.9882 84.7073 59.991C84.7073 60.8168 84.2944 61.8196 83.1146 62.7044C84.1764 64.0022 85.0612 65.064 85.8281 65.8308C86.5359 66.5387 87.0078 66.6567 87.4208 66.7156C87.5387 66.7156 87.8337 66.7156 87.8927 66.7156C88.0106 66.7156 88.0696 66.7746 88.0696 66.8336C88.0696 66.8926 88.0106 66.9516 87.7747 66.9516H86.7719C86.064 66.9516 85.7691 66.8926 85.4152 66.7746C84.7663 66.5387 84.3534 65.8898 83.5865 64.887C82.9966 64.1791 82.4068 63.4123 82.1708 63.1173C82.1118 63.0584 82.0528 63.0584 81.9938 63.0584H80.4601C80.4011 63.0584 80.4011 63.0584 80.4011 63.1173V63.2943C80.4011 64.4741 80.4011 65.5359 80.4601 66.0078C80.5191 66.3617 80.5781 66.6567 81.05 66.7156C81.227 66.7156 81.345 66.7156 81.4629 66.7156C81.5809 66.7156 81.6399 66.7746 81.6399 66.7746C81.6399 66.8336 81.5809 66.8926 81.4039 66.8926C80.6371 66.8926 79.8113 66.8336 79.7523 66.8336C79.5163 66.8336 78.8674 66.8926 78.4545 66.8926C78.2776 66.8926 78.2186 66.8926 78.2186 66.7746C78.2186 66.7156 78.3365 66.7156 78.3955 66.7156C78.5135 66.7156 78.6315 66.7156 78.6905 66.7156C78.9264 66.6567 79.0444 66.5387 79.1034 66.1847C79.1624 65.6539 79.1624 64.4741 79.1624 63.4123V61.2297H79.2804ZM80.4011 62.2915C80.4011 62.3505 80.4011 62.4095 80.4601 62.4685C80.6371 62.5864 81.227 62.6454 81.7579 62.6454C82.0528 62.6454 82.4657 62.6455 82.7607 62.4095C83.2326 62.1146 83.5275 61.5247 83.5275 60.5809C83.5275 58.9882 82.6427 58.1033 81.3449 58.1033C80.991 58.1033 80.6371 58.1033 80.4601 58.1623C80.4011 58.1623 80.3422 58.2213 80.3422 58.2803V62.2915H80.4011Z" fill="#898788"/>
<path d="M89.8983 63.4124C89.8983 64.5332 89.8983 65.536 89.9572 66.0669C90.0162 66.4208 90.0162 66.5978 90.4292 66.7158C90.6061 66.7748 90.9011 66.7748 91.019 66.7748C91.137 66.7748 91.196 66.8338 91.196 66.8338C91.196 66.8927 91.137 66.9517 91.019 66.9517C90.2522 66.9517 89.3674 66.8927 89.3084 66.8927C89.2494 66.8927 88.3646 66.9517 88.0106 66.9517C87.8337 66.9517 87.7747 66.9517 87.7747 66.8338C87.7747 66.7748 87.8337 66.7158 87.9516 66.7158C88.0696 66.7158 88.1876 66.7158 88.2466 66.7158C88.5415 66.6568 88.6005 66.4798 88.6595 66.0079C88.7185 65.477 88.7185 64.4152 88.7185 63.3534V58.1625C88.2466 58.1625 87.4208 58.1625 86.8309 58.1625C85.8871 58.1625 85.6511 58.3394 85.4741 58.6344C85.3561 58.8113 85.2972 58.9883 85.2382 59.1063C85.1792 59.2243 85.1792 59.2242 85.1202 59.2242C85.0612 59.2242 85.0612 59.1653 85.0612 59.1063C85.0612 59.0473 85.2972 58.0445 85.3562 57.6906C85.4151 57.5136 85.4741 57.4546 85.4741 57.4546C85.5921 57.4546 85.887 57.5726 86.123 57.6316C86.6539 57.6906 87.0668 57.6906 87.0668 57.6906H91.9039C92.3168 57.6906 92.7887 57.6906 92.9657 57.6316C93.1426 57.5726 93.2016 57.5726 93.2606 57.5726C93.3196 57.5726 93.3786 57.6316 93.3786 57.6906C93.3786 58.1035 93.3196 59.0473 93.3196 59.1653C93.3196 59.2832 93.2606 59.3422 93.2016 59.3422C93.1426 59.3422 93.0836 59.2832 93.0836 59.1653C93.0836 59.1063 93.0836 59.1063 93.0836 58.9883C93.0247 58.3984 92.8477 58.2804 91.314 58.2214C90.7241 58.2214 90.3112 58.2214 89.8393 58.2214V63.4124H89.8983Z" fill="#898788"/>
<path d="M101.637 65.949C101.637 66.5389 101.637 66.5389 101.46 66.6569C100.634 67.0698 99.4544 67.1878 98.7465 67.1878C97.8027 67.1878 95.9151 67.1288 94.4403 65.89C93.6145 65.2412 92.8477 64.0024 92.8477 62.3507C92.8477 60.4041 93.8505 58.9884 95.0892 58.2805C96.21 57.6317 97.5078 57.5137 98.3926 57.5137C99.3364 57.5137 99.9852 57.6317 100.516 57.6906C100.752 57.7496 101.342 57.8086 101.637 57.8086C101.755 57.8086 101.755 57.8676 101.755 57.9266C101.755 58.1036 101.637 58.5165 101.637 59.8142C101.637 59.9912 101.637 60.0502 101.519 60.0502C101.46 60.0502 101.401 59.9912 101.401 59.8732C101.401 59.7552 101.342 59.2833 101.106 58.9884C100.752 58.5165 99.6903 57.9856 98.0386 57.9856C97.2128 57.9856 96.328 57.9856 95.3252 58.7524C94.5583 59.3423 94.0864 60.4041 94.0864 61.8788C94.0864 63.5895 95.0302 64.8872 95.4432 65.2412C96.446 66.185 97.5077 66.5979 98.8055 66.5979C99.2184 66.5979 99.8673 66.5389 100.221 66.3619C100.398 66.3029 100.457 66.126 100.457 65.949V63.8844C100.457 62.9406 100.398 62.7636 99.8673 62.6457C99.7493 62.6457 99.6313 62.6457 99.5134 62.6457C99.3954 62.6457 99.3364 62.5867 99.3364 62.5277C99.3364 62.4687 99.3954 62.4097 99.5723 62.4097C100.162 62.4097 101.047 62.4097 101.106 62.4097C101.165 62.4097 102.05 62.4097 102.463 62.4097C102.64 62.4097 102.699 62.4097 102.699 62.5277C102.699 62.5867 102.64 62.6457 102.522 62.6457C102.404 62.6457 102.404 62.6457 102.286 62.6457C101.932 62.7047 101.814 62.9406 101.814 63.3535C101.814 63.7664 101.814 64.1204 101.814 64.6513V65.949H101.637Z" fill="#898788"/>
<path d="M104.822 63.4715C104.763 63.4715 104.704 63.5305 104.645 63.5895L103.996 65.4181C103.82 65.831 103.761 66.244 103.761 66.4209C103.761 66.6569 103.937 66.7749 104.232 66.7749C104.291 66.7749 104.291 66.7749 104.35 66.7749C104.468 66.7749 104.527 66.8338 104.527 66.8928C104.527 66.9518 104.409 67.0108 104.291 67.0108C103.937 67.0108 103.289 66.9518 103.112 66.9518C102.935 66.9518 102.286 67.0108 101.696 67.0108C101.519 67.0108 101.46 67.0108 101.46 66.8928C101.46 66.8338 101.519 66.7749 101.637 66.7749C101.696 66.7749 101.873 66.7749 101.932 66.7749C102.581 66.7159 102.817 66.244 103.053 65.6541L106.002 57.9856C106.179 57.5727 106.238 57.5137 106.297 57.5137C106.356 57.5137 106.415 57.5727 106.592 57.9856C106.828 58.4575 108.834 63.5305 109.6 65.3591C110.072 66.4799 110.544 66.7159 110.721 66.7749C110.898 66.8338 111.134 66.8338 111.252 66.8338C111.37 66.8338 111.429 66.8338 111.429 66.9518C111.429 67.0108 111.37 67.0698 111.193 67.0698C111.016 67.0698 109.954 67.0698 108.951 67.0698C108.657 67.0698 108.598 67.0698 108.598 66.9518C108.598 66.8928 108.657 66.8928 108.716 66.8338C108.775 66.8338 108.892 66.7159 108.775 66.5389L107.595 63.6485C107.536 63.5895 107.536 63.5895 107.477 63.5895H104.822V63.4715ZM107.359 62.9406C107.418 62.9406 107.418 62.8816 107.418 62.8816L106.238 59.6962C106.179 59.5193 106.12 59.5193 106.061 59.6962L104.94 62.8816C104.94 62.9406 104.94 62.9406 104.999 62.9406H107.359Z" fill="#898788"/>
<path d="M119.215 65.949C119.215 66.5389 119.215 66.5389 119.039 66.6569C118.213 67.0698 117.033 67.1878 116.325 67.1878C115.381 67.1878 113.494 67.1288 112.019 65.89C111.193 65.2412 110.426 64.0024 110.426 62.3507C110.426 60.4041 111.429 58.9884 112.668 58.2805C113.789 57.6317 115.086 57.5137 115.971 57.5137C116.915 57.5137 117.564 57.6317 118.095 57.6906C118.331 57.7496 118.921 57.8086 119.215 57.8086C119.333 57.8086 119.333 57.8676 119.333 57.9266C119.333 58.1036 119.215 58.5165 119.215 59.8142C119.215 59.9912 119.215 60.0502 119.097 60.0502C119.038 60.0502 118.98 59.9912 118.98 59.8732C118.98 59.7552 118.921 59.2833 118.685 58.9884C118.331 58.5165 117.269 57.9856 115.617 57.9856C114.791 57.9856 113.907 57.9856 112.904 58.7524C112.137 59.3423 111.665 60.4041 111.665 61.8788C111.665 63.5895 112.609 64.8872 113.022 65.2412C114.024 66.185 115.086 66.5979 116.384 66.5979C116.797 66.5979 117.446 66.5389 117.8 66.3619C117.977 66.3029 118.036 66.126 118.036 65.949V63.8844C118.036 62.9406 117.977 62.7636 117.446 62.6457C117.328 62.6457 117.21 62.6457 117.092 62.6457C116.974 62.6457 116.915 62.5867 116.915 62.5277C116.915 62.4687 116.974 62.4097 117.151 62.4097C117.741 62.4097 118.626 62.4097 118.685 62.4097C118.744 62.4097 119.628 62.4097 120.041 62.4097C120.218 62.4097 120.277 62.4097 120.277 62.5277C120.277 62.5867 120.218 62.6457 120.1 62.6457C119.982 62.6457 119.982 62.6457 119.864 62.6457C119.51 62.7047 119.392 62.9406 119.392 63.3535C119.392 63.7664 119.392 64.1204 119.392 64.6513V65.949H119.215Z" fill="#898788"/>
<path d="M121.575 61.2301C121.575 59.3425 121.575 58.9886 121.516 58.5757C121.516 58.1627 121.398 57.9858 120.926 57.8678C120.867 57.8678 120.69 57.8678 120.572 57.8678C120.454 57.8678 120.395 57.8088 120.395 57.8088C120.395 57.7498 120.454 57.6908 120.631 57.6908C120.926 57.6908 121.339 57.6908 122.165 57.7498C122.224 57.7498 124.878 57.7498 125.173 57.7498C125.468 57.7498 125.645 57.7498 125.763 57.6908C125.881 57.6908 125.881 57.6318 125.94 57.6318C125.94 57.6318 125.999 57.6318 125.999 57.7498C125.999 57.8088 125.881 58.0447 125.881 58.3987C125.881 58.6346 125.822 58.8706 125.822 59.1655C125.822 59.2835 125.763 59.4015 125.704 59.4015C125.645 59.4015 125.586 59.3425 125.586 59.2245C125.586 58.9886 125.527 58.8706 125.468 58.7526C125.35 58.4577 125.232 58.3397 124.524 58.3397C124.347 58.3397 122.873 58.3397 122.814 58.3397C122.755 58.3397 122.755 58.3397 122.755 58.4577V61.761C122.755 61.82 122.755 61.879 122.814 61.879C122.991 61.879 124.524 61.879 124.819 61.82C125.173 61.82 125.409 61.761 125.527 61.584C125.586 61.5251 125.645 61.4661 125.704 61.4661C125.763 61.4661 125.763 61.4661 125.763 61.5251C125.763 61.5841 125.704 61.879 125.645 62.2919C125.586 62.7048 125.586 62.9998 125.586 63.1767C125.586 63.2947 125.527 63.3537 125.468 63.3537C125.409 63.3537 125.35 63.2947 125.35 63.1767C125.35 63.1177 125.35 62.9408 125.291 62.8228C125.232 62.6458 125.114 62.4099 124.583 62.4099C124.23 62.4099 123.05 62.3509 122.814 62.3509C122.696 62.3509 122.696 62.4099 122.696 62.4689V63.5307C122.696 64.0026 122.696 65.2413 122.696 65.4773C122.696 66.0082 122.814 66.3031 123.109 66.4211C123.345 66.5391 123.699 66.5391 124.171 66.5391C124.465 66.5391 124.937 66.5391 125.291 66.4801C125.763 66.3621 125.822 66.0672 125.94 65.5363C125.999 65.4183 125.999 65.3593 126.058 65.3593C126.176 65.3593 126.176 65.4773 126.176 65.5953C126.176 65.7132 126.058 66.5981 125.999 66.834C125.94 67.129 125.822 67.129 125.35 67.129C124.347 67.129 123.935 67.129 123.463 67.129C122.932 67.129 122.283 67.07 121.693 67.07C121.339 67.07 121.044 67.129 120.69 67.129C120.572 67.129 120.454 67.129 120.454 67.011C120.454 66.952 120.513 66.893 120.572 66.893C120.69 66.893 120.749 66.893 120.867 66.834C121.162 66.775 121.339 66.5981 121.339 65.7132C121.339 65.2413 121.398 64.6514 121.398 63.5307V61.2301H121.575Z" fill="#898788"/>
</svg>
